<svg width="45" height="45" viewBox="0 0 45 45" fill="none" xmlns="http://www.w3.org/2000/svg">
<path d="M17.5884 2.71483V5.20078H18.8774H20.1664V6.4898V7.77881H22.5603H24.9542V6.4898V5.20078H26.1511H27.348V2.71483V0.228881H22.4682H17.5884V2.71483Z" fill="#F53838"/>
<path d="M5.54538 9.60191L3.90649 11.2592L5.43489 12.8244C6.28196 13.6899 7.03695 14.4081 7.11061 14.4081C7.23951 14.4081 10.0938 11.5354 10.1858 11.296C10.2042 11.2224 9.54132 10.449 8.71267 9.54666L7.18427 7.94461L5.54538 9.60191Z" fill="#F53838"/>
<path d="M36.4082 9.54663C35.5795 10.4489 34.8982 11.2223 34.8982 11.2776C34.8982 11.3328 35.5979 12.0694 36.4634 12.9349L38.0287 14.5001L39.4281 13.119C40.1831 12.364 40.8829 11.6091 40.975 11.4433C41.1039 11.2223 40.754 10.7804 39.5202 9.54663L37.8997 7.92616L36.4082 9.54663Z" fill="#F53838"/>
<path d="M19.3563 9.71237C12.4693 11.1487 7.27639 16.1758 5.58226 23.0629C5.06665 25.1621 5.02982 28.7897 5.5086 30.889C6.24518 34.1299 7.82882 37.0578 10.1122 39.4333C13.3532 42.7847 17.1834 44.5157 21.8238 44.7367C26.5932 44.9576 31.1784 43.1714 34.6403 39.7279C36.8132 37.5734 38.5257 34.6271 39.3544 31.6256C39.6858 30.3918 39.7595 29.6736 39.7595 27.114C39.7595 23.4864 39.4649 22.1605 38.0285 19.2511C35.6899 14.5185 31.8229 11.3328 26.7036 9.95176C24.9543 9.47298 21.0872 9.34408 19.3563 9.71237ZM26.3354 14.6659C30.5707 16.0101 33.7748 19.4352 34.9165 23.781C35.3953 25.5488 35.4321 28.3662 35.0086 30.1156C33.0566 38.31 24.3282 42.4717 16.8519 38.7888C15.3972 38.0706 14.8263 37.6471 13.5189 36.3213C12.1746 34.9954 11.7879 34.4614 11.0882 33.0067C9.19149 29.066 9.19149 25.1989 11.0882 21.2398C11.7879 19.7851 12.1746 19.2511 13.5005 17.9068C14.8447 16.5625 15.3787 16.1574 16.8519 15.4393C19.1353 14.316 20.4796 14.0214 22.9287 14.1134C24.3466 14.1687 25.2489 14.316 26.3354 14.6659Z" fill="#F53838"/>
<path d="M22.137 23.1181L16.4653 28.311L18.8592 28.3662C20.1851 28.3846 21.2715 28.4583 21.2715 28.5135C21.2715 28.6424 17.9753 34.7008 17.3492 35.7688L16.9625 36.4133L17.3492 36.1371C17.5702 35.9898 20.1482 33.7064 23.0761 31.0731L28.4163 26.2854L25.9488 26.2301C24.5861 26.2117 23.4812 26.1381 23.4812 26.0644C23.4812 26.0092 24.3835 24.3334 25.4884 22.3447C27.735 18.2935 27.9375 17.9068 27.8639 17.9068C27.8271 17.9068 25.249 20.2454 22.137 23.1181Z" fill="#F53838"/>
</svg>
