<svg width="496" height="389" viewBox="0 0 496 389" fill="none" xmlns="http://www.w3.org/2000/svg">
<path fill-rule="evenodd" clip-rule="evenodd" d="M240.889 36.5346C336.525 36.5346 414.046 114.022 414.046 209.567C414.046 305.16 336.525 382.648 240.889 382.648C145.303 382.648 67.7821 305.16 67.7821 209.567C67.7821 114.022 145.303 36.5346 240.889 36.5346Z" fill="#E8D6D7"/>
<path fill-rule="evenodd" clip-rule="evenodd" d="M240.889 42.9108C333.018 42.9108 407.666 117.526 407.666 209.567C407.666 301.656 333.018 376.223 240.889 376.223C148.809 376.223 74.161 301.607 74.161 209.567C74.161 117.526 148.809 42.9108 240.889 42.9108Z" fill="white" fill-opacity="0.72"/>
<path fill-rule="evenodd" clip-rule="evenodd" d="M320.504 101.513C321.381 100.345 321.526 99.6633 322.5 98.6412C328.636 92.119 339.592 98.4952 345.582 98.3491L346.166 103.606C348.991 103.703 350.645 102.73 350.5 99.7607C350.256 94.358 337.547 96.4509 335.697 91.1456C338.716 86.911 347.822 92.4597 351.473 94.2607C354.103 95.5748 356.684 96.889 359.07 98.2032C361.602 99.6146 364.573 102.097 365.79 102.778C366.52 99.9553 366.812 94.8447 368.127 93.1412C368.468 93.0925 368.809 93.1412 369.15 93.1898C359.996 83.1145 349.672 74.1588 338.375 66.4684C337.693 66.8091 336.817 67.0525 335.891 67.1012C332.19 67.3932 331.071 65.0569 326.591 66.4684C324.351 67.1985 321.185 68.9021 318.653 68.5614C319.336 68.0259 322.695 64.8622 323.134 64.1321C326.981 57.2206 315.05 62.38 317.193 54.1056C311.203 51.1852 305.02 48.5569 298.69 46.3178C298.397 47.0966 298.446 48.1675 298.884 49.8223C299.809 53.2781 300.491 55.809 297.959 57.9994C295.865 59.8002 292.846 60.1409 295.719 64.2295C297.812 67.2472 300.248 66.4197 304.484 66.3225C305.312 68.7074 305.214 70.8003 307.454 71.579C310.132 72.4552 311.69 72.5039 312.762 74.7428C311.983 76.6897 310.619 77.3225 309.84 79.9508C307.259 88.1765 309.256 88.0791 299.031 94.0172C301.076 96.0128 307.6 94.2607 309.061 99.1279C310.521 103.849 304.727 104.531 301.172 105.991C295.524 108.278 297.131 110.955 299.809 115.044C301.465 117.575 303.705 122.296 307.795 121.907C309.499 120.252 308.38 119.376 311.496 118.597C312.324 120.933 314.126 122.248 313.59 125.849C313.249 128.234 311.74 130.474 310.96 132.566C310.084 134.951 309.84 137.628 309.061 140.013C306.967 146.438 302.926 152.133 306.237 162.646C307.016 165.08 307.941 166.978 309.304 168.876C310.668 170.823 312.031 171.505 312.859 174.619C314.417 180.168 316.024 181.385 321.917 184.256C329.854 188.054 331.996 197.934 338.229 195.354C343.682 193.066 339.057 187.859 350.062 188.54C354.687 188.832 354.396 187.809 355.126 183.867C355.661 180.899 357.853 180.216 360.872 181.093C363.891 181.969 366.714 181.24 369.247 182.066C374.116 183.625 370.367 190 373.386 195.841C374.992 198.956 378.888 205.381 380.738 207.134C383.661 209.859 388.092 212.974 384.829 219.545C382.637 223.925 379.716 227.965 382.687 233.513C390.478 247.921 395.931 243.297 395.639 257.899C395.542 263.253 398.366 269.435 401.579 271.09C402.359 270.553 402.748 270.068 403.43 269.531C410.345 250.89 414.094 230.691 414.094 209.615C414.094 170.19 400.898 133.831 378.645 104.725L364.719 107.646C364.962 109.495 366.033 109.982 367.494 110.663C364.523 113.146 362.674 117.38 356.295 113.34C348.357 108.327 350.11 113.778 344.219 113.632C344.656 111.783 344.803 110.177 344.364 108.23C342.368 107.062 338.521 107.597 336.525 108.23C332.142 109.544 323.182 114.46 321.332 118.743L316.122 119.181C317.436 117.186 320.115 116.261 319.287 111.929C318.653 108.814 316.949 107.013 317.436 103.119C319.14 102.389 319.433 102.924 320.504 101.513ZM71.5316 173.743C74.8427 158.071 80.2478 143.128 87.5032 129.354C90.9118 129.402 94.7586 129.889 98.6054 128.819C103.962 127.261 113.554 122.734 115.648 119.522C110.049 121.907 107.906 124.146 99.9689 122.978C99.1898 122.199 98.6541 120.933 97.875 119.96C96.3168 121.615 96.0734 124.438 93.7361 124.778C92.47 124.973 91.3501 124.584 90.571 123.805C91.6422 121.907 92.8109 120.009 93.9795 118.159C97.5342 117.478 102.111 117.624 104.741 116.699C117.012 112.367 111.899 108.668 114.139 107.402C117.986 106.234 118.278 110.42 118.619 113.73C123.439 114.071 130.061 110.712 133.909 113.827C133.812 108.084 130.257 98.7385 138.534 99.42C138.193 97.4244 138.632 97.035 139.897 95.5747C140.775 94.5527 140.093 95.5262 140.629 94.6014H137.074C136.782 93.0438 136.198 92.0703 137.804 91.5837C141.553 90.5128 144.232 93.8226 147.933 94.1146C152.704 94.4553 156.016 90.8535 160.447 90.0262C166.68 88.8579 168.384 92.5571 172.962 94.0659C177.198 95.4775 184.891 92.0703 186.986 95.4288C183.674 98.7872 176.905 94.6987 178.61 99.9066L182.505 100.588C181.823 103.947 181.19 104.433 181.483 108.376C175.201 109.106 170.917 106.818 164.83 106.916C165.706 104.239 167.069 104.141 166.971 100.686L161.664 102.292C161.616 102.243 161.518 102.146 161.47 102.146C159.18 100.004 155.87 99.6633 152.997 101.27C154.507 104.823 154.847 104.774 154.896 109.495C156.211 110.517 158.352 110.712 157.135 113.146C156.357 114.703 154.847 115.287 153.532 116.309C151.876 117.672 152.315 118.986 149.491 118.646C147.786 118.451 145.936 117.429 145.352 116.407C144.621 117.867 144.33 118.986 143.502 120.447C141.31 124.438 138.339 128.039 140.336 132.663C143.648 133.053 155.285 131.3 159.376 130.863C173.497 129.354 164.148 122.686 163.661 121.225C162.103 116.796 165.949 109.203 173.156 110.225C176.565 110.712 177.685 113.681 179.925 114.071C184.696 114.898 184.307 112.026 185.378 109.349C188.933 108.863 188.981 111.734 190.978 113.681C193.949 116.65 201.691 116.504 205.391 119.814C208.216 122.345 207.729 122.394 208.995 126.287C211.187 126.433 212.306 125.849 214.01 127.212C215.13 128.137 216.153 129.208 215.666 131.496C213.864 132.663 209.238 132.955 206.414 132.615C202.908 132.177 202.762 129.695 202.081 126.579C199.695 126.871 197.844 127.943 195.896 128.478C192.732 129.306 191.124 126.969 189.809 129.451C188.105 132.566 186.741 136.703 184.989 139.624C188.056 139.673 189.322 136.46 193.899 136.703L194.532 140.11L200.912 139.673C200.571 142.009 199.061 143.907 197.795 144.831C194.825 146.973 194.532 145.757 192.682 144.053C183.722 143.713 187.229 150.478 185.135 156.757C184.063 160.018 181.434 159.629 181.093 162.841C180.508 168.34 179.535 165.128 177.003 168.292C177.831 171.164 180.265 170.677 178.269 176.031C177.295 178.562 175.785 180.655 175.785 183.721C175.835 188.832 179.145 193.943 179.778 199.881C177.539 199.296 176.224 197.982 175.153 196.717C170.331 190.779 168.092 191.412 161.47 194.721L161.177 197.009C150.367 198.372 145.352 203.775 145.888 215.456C146.13 220.519 148.955 223.877 153.191 225.044C157.915 226.359 163.563 225.434 162.54 218.571C169.601 217.501 166.826 220.908 169.601 225.434C171.841 229.084 174.958 229.425 179.925 227.868C180.363 231.178 180.023 231.032 182.262 232.541C183.868 233.659 184.356 234.292 186.499 235.363C194.192 239.208 191.222 234 196.822 234.828C198.526 236.385 197.746 237.553 201.349 237.066C201.301 226.699 199.695 226.894 218.003 226.018C233.78 225.24 229.349 225.531 235.777 229.377C237.529 230.399 238.844 230.643 241.134 230.691C250.677 231.032 254.816 235.996 263.143 236.775C269.521 237.359 283.643 233.903 287.83 238.479C289.291 240.134 287.198 247.044 287.685 250.597C288.171 254.054 290.021 257.704 291.336 260.722C298.787 277.66 284.762 273.036 281.402 288.806C280.478 293.138 279.017 295.084 277.557 298.784C274.926 305.355 281.89 319.373 274.002 320.541C272.881 319.519 271.664 315.235 268.353 317.134C265.042 319.032 268.158 324.97 270.008 327.16C273.076 330.908 273.32 332.369 269.375 336.018L270.69 336.505C270.983 336.944 271.129 337.674 270.934 338.307C270.398 340.205 265.772 339.231 262.119 342.103C261.877 348.82 263.192 353.93 264.944 359.82C265.577 362.01 266.211 365.856 267.769 367.024C270.301 368.922 275.073 365.612 275.316 370.041C272.298 371.453 265.09 372.766 261.147 371.112C258.614 370.041 255.693 365.369 254.037 362.156L244.346 339.766C242.934 334.656 244.979 329.984 244.59 324.629C244.249 319.714 242.934 316.062 241.036 312.12C237.724 305.307 234.219 296.545 231.005 290.12C226.33 290.266 223.214 290.413 220.632 287.784C219.756 286.908 218.685 285.351 217.759 284.28C215.764 281.944 214.06 279.704 211.576 277.806C210.261 276.833 209.044 276.297 207.68 275.373C198.526 269.142 205.148 253.665 200.473 245.244C197.309 239.597 195.264 242.567 192.634 241.837C191.368 241.497 189.712 240.377 188.397 239.743C183.674 237.603 178.902 237.505 174.909 234.585C171.013 231.713 170.429 232.589 165.073 232.2C156.989 231.615 148.468 234.341 141.359 233.028C133.616 231.665 130.257 226.359 126.41 223C124.559 221.394 113.311 213.899 110.876 214.094C108.49 220.859 118.716 224.461 120.567 229.619C111.071 229.571 112.094 222.563 108.393 215.992C104.79 209.518 98.0699 210.589 92.616 206.403C88.0388 202.899 86.3832 194.284 84.9711 188.687C83.1207 181.385 79.5174 177.296 77.4236 171.212L77.0827 172.138C76.5957 173.793 76.4496 175.934 75.7192 177.394C73.3332 177.296 71.9698 175.787 71.5316 173.743ZM96.5603 114.071C98.4594 113.876 99.0437 112.61 100.797 111.978C102.258 111.442 105.666 112.318 108.442 111.734C113.262 110.761 110.584 110.177 112.824 107.548C114.334 105.796 117.207 106.283 117.547 103.849C114.285 101.172 113.457 104.628 112.094 106.088C108.831 109.593 107.955 104.336 105.52 106.526C104.497 107.451 105.131 108.23 102.842 108.132C101.722 108.084 101.138 108.084 100.699 108.181C99.2385 110.079 97.875 112.075 96.5603 114.071ZM108.442 104.823C112.581 106.38 114.48 95.5747 108.782 103.216C107.614 104.774 108.442 104.823 108.442 104.823ZM120.567 94.504C121.394 95.9641 122.125 96.1589 123.878 95.5747C126.312 94.8447 125.777 94.6501 127.579 95.8669L127.773 93.6278C124.17 93.1412 121.492 91.4863 120.567 94.504ZM198.137 211.368C200.23 212.438 203.59 212.146 205.537 210.735C208.021 208.934 204.661 209.469 209.627 206.208C209.677 206.16 209.823 206.062 209.872 206.014L210.359 205.625C207.291 205.721 204.515 205.138 201.496 205.965C198.282 206.841 197.259 207.717 198.137 211.368ZM173.204 210.296C177.198 210.2 176.565 209.421 178.561 208.058C183.187 204.894 187.667 210.2 190.685 209.859C192.682 209.665 196.09 209.518 195.799 207.328C195.458 204.797 193.072 205.673 190.735 205.867C187.667 206.062 187.473 204.31 183.674 204.943C180.023 205.429 173.74 206.89 173.204 210.296ZM252.674 76.9331C253.55 76.057 253.55 74.9375 254.573 74.0614C256.716 72.1632 262.947 73.0879 263.045 67.2959C261.293 67.1498 260.659 67.4419 259.004 66.9552C255.254 65.787 254.913 67.5879 252.917 69.0481C251.261 70.265 250.823 69.4375 248.925 69.9241C246.878 70.4596 243.616 72.5526 246.1 74.256C246.976 74.8889 251.261 76.4951 252.674 76.9331ZM282.328 87.4951C283.205 85.8402 286.37 82.5791 286.224 81.119C285.98 78.9287 284.568 81.0703 285.98 77.0791C286.565 75.3756 286.661 74.6941 286.954 72.942C291.921 73.964 295.914 82.4332 305.36 83.6013C304.873 86.619 305.653 87.3491 303.51 88.9553C302.245 89.8801 300.102 90.7562 298.446 90.9509C293.674 91.535 293.966 86.327 291.921 84.1366C287.295 84.1853 290.753 88.2252 288.123 89.6367C286.126 90.6589 283.351 88.4685 282.328 87.4951ZM141.748 81.7031C137.999 82.1897 133.909 83.0659 131.28 84.5747C131.474 87.9819 134.834 87.9819 138.048 87.3491C142.479 86.473 143.015 87.2031 143.502 91.3402C149.589 91.6809 155.431 92.5084 155.481 87.1544L151.536 87.3977C150.757 86.1322 151.536 86.911 150.561 86.1322C152.851 80.7783 157.135 81.411 160.301 75.9596C161.616 73.7694 161.713 70.8003 163.222 68.8047C164.926 66.4684 167.216 67.4419 168.433 63.6454C160.885 64.1321 159.96 68.4153 153.386 70.9464C147.153 73.4773 141.116 73.672 141.748 81.7031ZM168.725 77.0304C171.889 78.734 176.126 73.4773 184.113 80.2428C193.121 87.9332 196.383 82.8712 198.331 82.8225C199.159 87.2031 199.986 89.9288 202.373 92.2164C203.444 93.2385 208.41 97.035 210.455 97.9112C214.595 99.7607 218.296 98.3491 219.172 94.6501C220.097 90.7076 218.003 85.5969 219.854 82.2384C220.682 80.7783 224.869 79.6588 228.132 77.0791C230.81 74.9862 232.904 72.9906 235.777 70.9464C237.822 69.4862 243.324 67.2472 244.152 65.4463C245.272 62.964 240.549 58.8268 241.96 54.6896C243.714 53.8134 246.246 54.6409 248.437 54.1056C250.97 53.5214 250.531 52.402 251.505 50.0657C253.209 46.1232 259.052 47.34 256.812 42.1807C253.356 41.0612 247.95 46.7559 245.856 48.1675C242.594 50.4064 242.642 48.1188 235.679 51.4285C235.241 51.6232 234.462 51.9639 234.073 52.0613C232.66 52.3533 232.515 52.0126 232.27 51.9152C231.783 49.4816 232.806 47.9727 233.488 45.8798C234.413 43.2028 235.777 41.5479 235.582 40.039C235.095 35.6098 228.423 40.8665 224.577 41.0125C222.045 41.1098 219.854 40.0877 217.663 41.2559C214.936 42.716 216.445 45.3444 214.06 45.8798C209.92 46.7559 206.414 40.1364 202.616 47.0966C200.132 51.5745 197.844 51.4285 191.757 52.1585C189.42 52.4507 187.521 53.1807 185.914 54.2515L172.571 65.2029C170.77 67.1498 168.14 71.9684 168.044 75.0348L168.725 77.0304ZM142.187 102.389L138.68 99.9553L139.412 105.115C145.4 105.212 146.034 107.5 147.835 110.177C153.775 107.402 143.598 103.168 142.187 102.389Z" fill="#E8D6D7"/>
<path d="M178.33 168.227C181.987 168.227 184.952 165.263 184.952 161.608C184.952 157.952 181.987 154.989 178.33 154.989C174.673 154.989 171.708 157.952 171.708 161.608C171.708 165.263 174.673 168.227 178.33 168.227Z" fill="#ED5158"/>
<path d="M178.33 173.195C184.732 173.195 189.922 168.007 189.922 161.608C189.922 155.208 184.732 150.021 178.33 150.021C171.928 150.021 166.738 155.208 166.738 161.608C166.738 168.007 171.928 173.195 178.33 173.195Z" fill="#ED5158" fill-opacity="0.47"/>
<path fill-rule="evenodd" clip-rule="evenodd" d="M495.657 266.806H419.402C419.938 264.469 422.031 262.766 424.515 262.766C424.612 262.766 424.758 262.766 424.856 262.766C426.025 259.797 428.946 257.753 432.354 257.753C433.864 257.753 435.227 258.142 436.396 258.824C437.857 254.006 442.288 250.549 447.547 250.549C448.618 250.549 449.641 250.695 450.615 250.988C453.147 245.341 458.845 241.447 465.417 241.447C473.209 241.447 479.734 246.948 481.292 254.297C481.438 254.297 481.584 254.297 481.682 254.297C486.697 254.297 490.837 258.044 491.42 262.864C493.563 263.204 495.17 264.762 495.657 266.806Z" fill="#F9EAEA"/>
<path fill-rule="evenodd" clip-rule="evenodd" d="M80.2964 73.9261H4.0416C4.57724 71.5898 6.67107 69.8863 9.15448 69.8863C9.25186 69.8863 9.39794 69.8863 9.49533 69.8863C10.7127 66.966 13.5857 64.873 16.9942 64.873C18.455 64.873 19.8672 65.2624 21.0359 65.9438C22.4967 61.1738 26.9278 57.6694 32.1867 57.6694C33.2581 57.6694 34.2806 57.8154 35.2545 58.1074C37.7866 52.4614 43.4838 48.5675 50.0575 48.5675C57.8485 48.5675 64.3735 54.0676 65.9318 61.4172C66.0779 61.4172 66.1752 61.4172 66.3213 61.4172C71.3368 61.4172 75.4758 65.165 76.0601 69.9836C78.2027 70.373 79.8096 71.9305 80.2964 73.9261Z" fill="#F9EAEA"/>
<path fill-rule="evenodd" clip-rule="evenodd" d="M83.3155 387.223C129.185 387.223 166.631 384.107 166.631 380.263C166.631 376.417 129.185 373.303 83.3155 373.303C37.397 373.303 0 376.417 0 380.263C0 384.107 37.397 387.223 83.3155 387.223Z" fill="#FAF4F4"/>
<path fill-rule="evenodd" clip-rule="evenodd" d="M315.391 387.806C340.42 387.806 360.774 385.275 360.774 382.161C360.774 379.046 340.372 376.515 315.391 376.515C290.362 376.515 270.008 379.046 270.008 382.161C270.008 385.275 290.362 387.806 315.391 387.806Z" fill="#FAF4F4"/>
<path fill-rule="evenodd" clip-rule="evenodd" d="M338.327 381.285C342.563 379.776 342.904 377.585 345.192 376.515C347.481 375.443 347.724 373.497 345.484 371.453C343.828 372.767 341.735 374.421 340.663 373.545C339.933 372.962 337.449 373.01 336.963 373.838C334.82 378.85 331.801 377.293 331.217 379.533C331.217 382.599 336.378 381.966 338.327 381.285Z" fill="#272021"/>
<path fill-rule="evenodd" clip-rule="evenodd" d="M301.854 381.431C309.695 381.285 315.537 381.187 318.264 380.359C321.185 379.435 320.602 377.634 318.897 374.812C311.496 378.219 313.492 374.13 310.036 374.616C307.6 376.563 303.997 377.878 299.225 378.51C297.229 380.068 298.057 381.381 301.854 381.431Z" fill="#272021"/>
<path fill-rule="evenodd" clip-rule="evenodd" d="M328.928 191.314C327.663 191.412 325.714 191.168 325.373 190.731C324.01 189.027 323.134 187.274 322.745 186.156C322.988 185.425 323.28 184.5 323.573 183.38C328.393 180.12 329.074 177.687 325.568 176.128C324.838 176.518 323.962 177.735 322.939 179.779C322.111 179.731 321.478 179.34 321.04 178.513C322.063 175.058 322.695 172.284 322.988 170.093C320.602 166.54 315.05 166.053 307.698 167.027C307.357 168.973 307.065 171.066 306.87 173.256C305.555 174.474 305.75 178.903 306.918 184.014C306.335 186.934 308.136 188.491 312.324 188.783C312.372 189.805 312.275 191.071 312.227 191.216C312.129 191.46 311.74 191.655 311.253 191.849C311.058 196.571 316.999 196.425 328.928 191.314Z" fill="#F9AF79"/>
<path fill-rule="evenodd" clip-rule="evenodd" d="M307.698 166.978C315.05 166.004 320.602 166.54 322.988 170.044C322.695 172.186 322.013 175.009 321.04 178.465C321.478 179.292 322.111 179.731 322.939 179.731C324.01 177.687 324.886 176.469 325.568 176.08C329.074 177.637 328.441 180.071 323.573 183.332C323.28 184.452 323.036 185.376 322.745 186.106C327.078 185.133 330.73 181.24 331.217 179.585C336.282 169.607 330.632 165.372 327.613 163.863C326.25 153.982 311.934 162.695 304.727 157.973C301.952 161.916 305.458 166.881 307.698 166.978Z" fill="#3A2B2C"/>
<path fill-rule="evenodd" clip-rule="evenodd" d="M263.532 208.787C267.184 224.363 273.563 236.434 282.717 245.05C286.029 244.028 288.951 241.788 291.531 238.284C291.385 249.575 291.677 260.771 292.359 271.966C299.031 275.129 307.941 274.934 318.994 271.381L323.475 265.881C324.643 265.637 327.224 266.952 328.491 268.85C339.008 260.819 346.068 252.204 350.256 243.687C349.137 225.288 346.653 210.783 342.758 200.172C340.809 197.156 336.232 194.186 328.976 191.314C317.047 196.425 311.106 196.619 311.253 191.801C307.746 192.969 303.071 195.014 297.229 197.934C292.407 201.633 288.269 211.611 284.86 227.868C279.309 220.908 273.563 213.558 267.574 205.721C266.211 206.112 264.896 207.134 263.532 208.787ZM325.861 260.868C322.354 249.43 324.303 235.314 331.607 218.523C333.457 226.797 335.454 234.974 337.595 243.006C335.113 244.173 331.217 250.112 325.861 260.868Z" fill="#ED5158"/>
<path fill-rule="evenodd" clip-rule="evenodd" d="M327.176 275.762C325.471 275.615 322.745 274.156 318.994 271.381C307.941 274.934 299.079 275.178 292.359 271.966C291.19 290.802 295.817 310.515 301.66 332.465C307.406 342.103 307.163 348.916 310.23 371.112C311.934 372.329 314.758 372.183 318.653 370.576C319.92 351.594 319.044 339.036 314.126 331.978C314.904 325.603 312.859 309.978 312.762 300.147C316.365 308.129 318.8 318.934 323.475 329.788C329.172 343.028 333.116 357.241 336.135 370.235C339.3 370.82 342.271 370.479 345.046 369.117C341.881 347.846 338.327 333.196 334.479 325.165C334.626 304.235 332.629 285.447 328.491 268.802C327.711 270.797 327.272 273.134 327.176 275.762Z" fill="#4D383A"/>
<path fill-rule="evenodd" clip-rule="evenodd" d="M318.946 271.381C322.745 274.204 325.471 275.665 327.127 275.762C327.224 273.084 327.663 270.797 328.441 268.802C327.176 266.855 324.595 265.589 323.426 265.833L318.946 271.381Z" fill="#F9AF79"/>
<path fill-rule="evenodd" clip-rule="evenodd" d="M291.531 238.332C291.872 227.381 292.798 218.425 294.161 211.416C290.606 226.31 287.198 236.19 283.886 241.058C281.793 241.01 279.114 239.743 275.901 237.31C277.994 240.182 280.283 242.761 282.766 245.146C286.029 244.076 288.951 241.837 291.531 238.332Z" fill="#DE3B43"/>
<path fill-rule="evenodd" clip-rule="evenodd" d="M323.426 265.833C324.058 264.226 324.886 262.571 325.861 260.868C322.354 249.43 324.303 235.314 331.607 218.523C320.943 233.659 317.923 249.819 322.549 266.952L323.426 265.833Z" fill="#DE3B43"/>
<path fill-rule="evenodd" clip-rule="evenodd" d="M317.145 187.713C315.976 188.296 314.369 188.637 312.324 188.735C312.372 189.416 312.324 190.244 312.275 190.731C314.32 190.292 315.976 189.318 317.145 187.713Z" fill="#ED7D57"/>
<path fill-rule="evenodd" clip-rule="evenodd" d="M318.167 375.152C317.777 373.838 317.631 372.475 317.729 370.966C314.758 372.037 312.47 372.231 310.912 371.55C310.96 372.67 310.862 373.692 310.521 374.616C313.2 374.519 311.983 377.78 318.167 375.152ZM337.936 373.303C338.91 373.059 340.225 373.156 340.713 373.545C341.687 374.325 343.439 373.108 344.997 371.89C344.705 371.161 344.51 370.381 344.316 369.457C342.465 370.236 340.518 370.577 338.473 370.528C338.473 371.648 338.327 372.572 337.936 373.303Z" fill="#F9AF79"/>
<path fill-rule="evenodd" clip-rule="evenodd" d="M327.272 278.487C327.176 277.515 327.127 276.637 327.176 275.811C325.471 275.665 322.745 274.204 318.994 271.43C318.118 271.722 317.193 271.966 316.365 272.257C318.946 274.934 322.598 277.028 327.272 278.487Z" fill="#5B0E12"/>
<path fill-rule="evenodd" clip-rule="evenodd" d="M242.692 192.872L245.661 186.398C261.584 193.699 265.48 195.5 281.452 202.801C282.328 203.24 282.766 204.262 282.328 205.138L280.867 208.398C280.429 209.274 279.407 209.665 278.481 209.274C262.51 201.974 258.663 200.222 242.692 192.872Z" fill="#ED5158"/>
<path fill-rule="evenodd" clip-rule="evenodd" d="M245.661 186.447L242.692 192.872L235.436 185.669L245.661 186.447Z" fill="#F9AF79"/>
<path fill-rule="evenodd" clip-rule="evenodd" d="M277.312 203.531L276.338 205.673L243.714 190.731L244.687 188.589L277.312 203.531Z" fill="#DE3B43"/>
<path fill-rule="evenodd" clip-rule="evenodd" d="M278.287 201.39L275.316 207.863L278.433 209.274C279.309 209.713 280.38 209.324 280.819 208.398L282.28 205.138C282.717 204.262 282.28 203.19 281.402 202.801L278.287 201.39Z" fill="#DE3B43"/>
<path fill-rule="evenodd" clip-rule="evenodd" d="M238.114 188.296C240.061 188.2 240.402 187.42 239.137 185.911L235.436 185.619L238.114 188.296Z" fill="#DE3B43"/>
<path fill-rule="evenodd" clip-rule="evenodd" d="M267.525 205.721C267.476 202.607 265.772 201.827 265.431 200.124C263.97 200.757 263.629 201.925 264.311 203.629C263.679 203.094 262.997 202.558 262.364 201.925C260.27 200.952 258.614 200.222 257.446 199.687C258.176 201.585 259.15 203.775 260.465 206.256C261.243 207.425 262.364 207.23 263.825 208.398C265.09 206.987 266.307 206.062 267.525 205.721Z" fill="#F9AF79"/>
<path fill-rule="evenodd" clip-rule="evenodd" d="M136.684 345.754C136.441 345.754 136.198 345.656 136.052 345.51C135.613 345.121 135.564 344.487 135.954 344.05C140.872 338.112 143.598 330.616 143.598 322.878C143.598 319.178 143.015 315.577 141.797 312.12C141.603 311.585 141.894 311.002 142.43 310.806C142.966 310.611 143.55 310.904 143.745 311.439C145.011 315.138 145.643 318.984 145.643 322.878C145.643 331.054 142.77 339.036 137.512 345.365C137.269 345.607 136.976 345.754 136.684 345.754Z" fill="white"/>
<path fill-rule="evenodd" clip-rule="evenodd" d="M157.817 332.563C149.637 334.121 139.412 337.285 127.043 342.103C127.87 342.297 128.65 342.589 129.429 342.882C146.471 336.7 157.769 333.585 163.272 333.537C162.298 333.196 161.323 332.952 160.301 332.856C160.399 323.802 160.836 315.771 161.713 308.811C159.619 319.665 158.352 327.599 157.817 332.563Z" fill="#DAAA00"/>
<path fill-rule="evenodd" clip-rule="evenodd" d="M127.043 342.152C123.245 341.032 119.885 341.275 116.963 342.93L119.446 351.449C119.739 352.421 119.154 353.152 118.229 353.152L120.469 353.249C121.492 352.665 122.563 352.275 123.683 352.13C125.777 353.443 128.503 353.152 131.864 351.253C132.106 347.846 131.23 345.121 129.283 342.979C129.331 342.93 129.38 342.93 129.429 342.93C128.698 342.59 127.92 342.347 127.043 342.152Z" fill="#F9AF79"/>
<path fill-rule="evenodd" clip-rule="evenodd" d="M155.285 357.387C155.822 354.319 156.307 351.01 156.844 347.457C150.416 349.161 142.089 350.718 131.766 352.275C131.815 351.934 131.864 351.594 131.864 351.253C128.455 353.152 125.728 353.443 123.683 352.13C122.563 352.275 121.54 352.665 120.469 353.249L143.502 354.223C143.209 355.78 142.528 356.948 141.505 357.678C146.375 357.824 150.952 357.776 155.285 357.387Z" fill="#DAAA00"/>
<path fill-rule="evenodd" clip-rule="evenodd" d="M116.963 342.882C119.154 341.616 121.589 341.178 124.267 341.519C128.65 332.028 125.923 318.497 132.156 297.811C127.675 300.05 122.466 310.904 116.525 330.421C115.892 330.956 115.015 331.589 113.895 332.271L116.963 342.882Z" fill="#FFC805"/>
<path fill-rule="evenodd" clip-rule="evenodd" d="M132.204 297.86C125.972 318.497 128.698 332.028 124.316 341.567C125.192 341.665 126.118 341.86 127.091 342.152C139.46 337.333 149.685 334.121 157.867 332.612C158.352 327.647 159.667 319.714 161.762 308.908C160.934 315.868 160.447 323.9 160.349 332.952C161.323 333.05 162.298 333.293 163.32 333.634C157.769 333.682 146.471 336.798 129.478 342.979L129.331 343.028C131.28 345.121 132.156 347.894 131.912 351.303C131.912 351.643 131.864 351.984 131.815 352.325C142.089 350.816 150.465 349.209 156.892 347.505C162.2 346.143 166.145 344.682 168.822 343.174C175.785 331.589 176.857 316.647 172.085 298.346C169.504 295.036 163.709 293.82 154.749 294.647C145.401 302.531 141.116 302.922 141.894 295.766C137.756 295.912 134.542 296.593 132.204 297.86Z" fill="#FFC805"/>
<path fill-rule="evenodd" clip-rule="evenodd" d="M131.912 298.006C126.361 309.493 125.387 332.806 122.855 335.337C121.881 336.505 119.593 337.918 116.038 339.572L116.087 339.816L116.963 342.882C119.154 341.616 121.589 341.178 124.267 341.519C128.65 332.028 125.923 318.497 132.156 297.811C132.058 297.86 131.961 297.956 131.912 298.006Z" fill="#DAAA00"/>
<path fill-rule="evenodd" clip-rule="evenodd" d="M82.7311 356.121L138.389 358.457C141.262 358.554 143.015 356.996 143.55 354.174L80.8808 351.545H80.6861C80.1017 351.497 79.1765 351.788 79.4687 353.443C79.7609 354.856 81.2216 356.024 82.7311 356.121Z" fill="#FFFEFE"/>
<path fill-rule="evenodd" clip-rule="evenodd" d="M73.6255 321.66L109.562 323.169C110.536 323.218 111.509 324.046 111.802 325.018L119.398 351.448C119.69 352.421 119.106 353.152 118.181 353.152L82.2443 351.643C81.2704 351.594 80.2966 350.816 80.0043 349.842L72.4081 323.413C72.1159 322.391 72.6515 321.611 73.6255 321.66Z" fill="white"/>
<path fill-rule="evenodd" clip-rule="evenodd" d="M66.0779 360.744C68.8047 358.944 70.9472 357.289 72.4568 355.78C74.7941 356.802 77.034 357.776 79.1279 358.603C84.2408 357.97 90.2301 357.337 97.0472 356.705L82.7798 356.121C81.2703 356.072 79.8096 354.856 79.566 353.493C79.2739 351.838 80.1504 351.545 80.7834 351.594H80.9782L82.3416 351.643C81.3678 351.594 80.3938 350.816 80.1017 349.842L76.3523 336.749C74.0636 336.652 72.0186 336.554 70.2168 336.652C60.1372 340.303 51.4697 355.293 32.6737 367.754C32.9659 371.014 34.5727 373.107 37.1049 375.201C46.9411 370.966 56.8259 366.293 62.6692 362.886C63.8379 362.156 65.0065 361.426 66.0779 360.744Z" fill="#4C383A"/>
<path fill-rule="evenodd" clip-rule="evenodd" d="M12.563 369.117C20.0132 375.688 25.5643 379.678 28.8269 381.187C32.3328 382.794 33.3554 381.577 34.2319 377.439C24.3957 374.325 29.7521 372.134 26.0513 369.7C22.1071 369.457 17.6272 367.608 12.563 364.152C9.39793 363.86 9.00838 365.758 12.563 369.117Z" fill="#272021"/>
<path fill-rule="evenodd" clip-rule="evenodd" d="M14.5108 360.55C14.8516 362.838 15.0465 363.957 15.3386 365.952L15.4847 366.05L15.5335 366.099L15.6307 366.147L15.7769 366.197L15.923 366.293L15.9716 366.341L16.069 366.391L16.2151 366.488L16.3613 366.537L16.4098 366.586L16.7994 366.78L16.8481 366.828L16.9455 366.878L17.0429 366.926L17.0917 366.975L17.2377 367.024H17.2864L17.3838 367.072L17.4812 367.121H17.5299L17.6759 367.169H17.7246L17.822 367.219L17.9195 367.267L17.968 367.315L18.1142 367.365H18.1629L18.2603 367.413L18.3576 367.461L18.4063 367.51L18.5524 367.559H18.6011L18.6986 367.608L18.7959 367.656L18.9907 367.705L19.1854 367.802L19.2341 367.85L19.3802 367.9L19.5264 367.948H19.575L19.6237 367.997L19.7698 368.046L19.9159 368.094L19.9645 368.143L20.0619 368.191L20.1593 368.241L20.3055 368.289L20.3541 368.337H20.4028L20.5489 368.387L20.695 368.435H20.7436L20.841 368.483L20.9385 368.532H20.9872L21.1332 368.581H21.1819L21.2793 368.63L21.4254 368.678L21.5714 368.728H21.6201L21.7176 368.776L21.815 368.824H22.0097L22.1558 368.872H22.2532L22.3505 368.922H22.3992L22.5454 368.97H22.6428H22.7401H22.7888L22.9349 369.019L23.1783 369.068L23.3245 369.117L23.4219 369.165H23.5192H23.5679L23.714 369.213H23.8114H23.9574L24.0549 369.263H24.1523H24.201H24.2983C24.2497 369.019 24.201 368.776 24.1523 368.483C21.2793 365.71 18.7959 362.74 17.2377 356.85C15.1439 354.758 13.9752 355.732 14.5108 360.55ZM16.3126 372.329C16.8968 375.493 17.5785 378.461 18.2603 379.97C19.7211 383.183 22.4479 381.528 25.4669 379.289C23.0323 377.683 19.9645 375.395 16.3126 372.329Z" fill="#272021"/>
<path fill-rule="evenodd" clip-rule="evenodd" d="M33.2581 377.147C34.1346 375.93 35.1084 375.055 36.1796 374.421C34.4754 372.864 33.2581 371.209 32.7711 368.97C30.8234 369.992 28.9243 370.577 27.0739 370.772C28.4373 372.718 26.0026 374.616 33.2581 377.147Z" fill="#F9AF79"/>
<path fill-rule="evenodd" clip-rule="evenodd" d="M137.415 378.461C149.394 377.683 154.312 368.728 154.068 357.483C150.124 357.776 145.936 357.824 141.553 357.63C140.725 358.214 139.655 358.457 138.389 358.409L97.0472 356.705C90.23 357.337 84.2408 357.97 79.1279 358.603C75.9628 359.041 73.1872 359.431 70.7038 359.868C68.9507 360.355 66.2726 361.329 62.7666 362.838L62.6692 362.886C56.826 366.293 46.9411 370.966 37.1049 375.201C36.8127 374.957 36.5205 374.714 36.2771 374.471C35.2058 375.103 34.2319 375.98 33.3555 377.197C33.6476 377.293 33.9885 377.391 34.3293 377.488C34.3293 377.537 34.2806 377.634 34.2806 377.683C62.3284 380.214 71.5316 375.979 78.9818 373.74C103.183 378.024 114.918 379.63 137.415 378.461Z" fill="#4C383A"/>
<path fill-rule="evenodd" clip-rule="evenodd" d="M151.243 280.629C150.319 276.832 150.124 272.501 148.907 270.846C138.778 267.293 137.658 272.89 133.227 273.961C133.179 275.324 133.616 276.882 134.494 278.585C134.153 284.717 135.564 288.515 138.778 289.926C139.606 290.802 140.921 291.289 142.82 291.435C142.625 292.213 142.089 295.036 141.846 295.766C141.066 302.872 145.303 302.483 154.701 294.647H154.749C154.701 292.116 154.457 290.218 154.507 288.319C154.555 287.006 154.555 285.886 154.653 284.864C158.012 281.359 158.645 278.585 156.648 276.395C153.971 275.129 152.461 276.93 152.023 281.749C151.195 281.457 151.78 281.7 151.243 280.629Z" fill="#F9AF79"/>
<path fill-rule="evenodd" clip-rule="evenodd" d="M133.179 273.962C137.609 272.89 138.778 267.293 148.857 270.846C150.124 272.501 150.27 276.832 151.195 280.629C151.73 281.749 151.195 281.505 151.974 281.797C152.412 276.978 153.922 275.226 156.6 276.443C158.597 278.585 157.963 281.408 154.603 284.912C154.507 285.934 154.507 287.054 154.457 288.368C163.904 279.655 161.957 267.877 156.259 264.032C157.671 264.178 159.084 264.713 160.544 265.637C158.45 262.864 155.626 261.89 152.121 262.717C152.51 260.722 152.412 259.262 151.876 258.337C151.73 259.699 151.439 260.722 151.049 261.452C148.809 259.359 144.426 258.921 139.947 260.575C134.201 262.766 128.211 268.022 125.923 266.465C126.312 271.868 129.38 275.178 133.179 273.962Z" fill="#3A2B2C"/>
<path fill-rule="evenodd" clip-rule="evenodd" d="M148.761 289.731C147.105 290.85 145.108 291.386 142.82 291.435C142.722 291.872 142.528 292.944 142.285 293.916C145.158 293.138 147.299 291.775 148.761 289.731Z" fill="#ED7D57"/>
<path fill-rule="evenodd" clip-rule="evenodd" d="M79.6147 352.13C76.4496 351.01 73.7228 349.696 71.4342 348.138C70.3629 349.161 69.3403 350.183 68.269 351.156C57.9459 360.744 48.0123 368.094 38.4683 372.621C37.4944 373.059 36.5692 373.497 35.6441 373.886C35.8388 374.081 36.0336 374.227 36.2283 374.421L37.0561 375.152C39.0039 374.325 40.9517 373.497 42.8507 372.621C50.6418 369.165 57.9459 365.563 62.6205 362.886C62.6692 362.886 62.6692 362.838 62.7179 362.838C63.9353 362.107 65.0552 361.425 66.0779 360.794C66.857 360.259 67.5874 359.772 68.269 359.285C69.9734 358.068 71.3367 356.9 72.4081 355.828C74.7454 356.85 76.9853 357.824 79.0792 358.652C81.952 358.311 85.1172 357.922 88.5258 357.581C91.204 357.289 93.9795 357.046 96.9985 356.754L88.5258 356.413L82.6825 356.169C81.1729 356.121 79.7122 354.904 79.4687 353.541C79.42 352.86 79.4687 352.421 79.6147 352.13Z" fill="#3A2A2B"/>
<path fill-rule="evenodd" clip-rule="evenodd" d="M135.711 372.621C128.698 374.568 119.008 374.812 106.543 373.351C104.4 373.108 102.355 372.864 100.358 372.621C96.0734 372.085 92.1779 371.55 88.5745 371.014C85.0199 370.479 81.7573 369.944 78.8356 369.359C76.6932 370.625 74.2584 371.696 71.4829 372.621C70.4603 372.962 69.389 373.253 68.269 373.594C59.5041 375.93 48.061 376.856 33.8423 376.417C33.6476 376.661 33.4528 376.904 33.2581 377.147C33.5502 377.245 33.891 377.343 34.2319 377.439L34.1832 377.634C51.2261 379.191 61.3058 378.219 68.269 376.71C72.7489 375.736 75.9141 374.568 78.8356 373.692C82.293 374.275 85.5067 374.86 88.5258 375.395C106.689 378.461 118.083 379.483 137.367 378.461C142.77 378.121 146.716 376.125 149.394 373.059C152.704 369.214 154.166 363.714 154.019 357.532C153.484 357.581 152.949 357.581 152.412 357.63C151.293 357.678 150.221 357.727 149.053 357.727C148.712 365.271 144.232 370.236 135.711 372.621Z" fill="#3A2A2B"/>
<path fill-rule="evenodd" clip-rule="evenodd" d="M356.587 159.921C356.05 160.504 356.002 161.186 356.246 161.916C356.732 163.278 358.34 164.739 360.19 166.248C360.433 166.442 360.628 166.589 360.823 166.783C360.872 166.831 360.92 166.881 360.968 166.929C361.018 166.978 361.018 166.978 361.066 167.027C362.819 168.633 362.137 168.973 365.254 172.234C368.809 175.934 371.243 175.982 371.973 175.641C372.558 175.35 371.341 173.402 370.026 171.212C369.978 171.116 369.88 171.018 369.832 170.871C369.637 170.58 369.491 170.288 369.296 169.996C367.737 167.318 368.127 166.102 368.517 162.16C368.809 158.947 373.532 144.248 373.532 144.248L366.714 143.08C366.714 143.08 364.669 154.761 362.43 156.611C361.213 157.584 359.849 157.584 358.68 158.314C358.583 158.362 358.534 158.412 358.438 158.46C357.804 158.899 357.123 159.336 356.587 159.921Z" fill="#F9AF79"/>
<path fill-rule="evenodd" clip-rule="evenodd" d="M356.587 159.921C356.05 160.504 356.002 161.186 356.246 161.916C356.83 163.278 358.388 164.739 360.19 166.248C360.433 166.442 360.628 166.637 360.823 166.783C360.872 166.831 360.92 166.881 360.968 166.929C361.018 166.978 361.018 166.978 361.066 167.027C362.819 168.633 362.137 168.973 365.254 172.234C368.809 175.934 371.243 175.982 371.973 175.641C372.558 175.35 371.341 173.402 370.026 171.212C369.344 170.969 366.131 169.655 363.696 166.54C361.553 163.815 360.142 160.31 358.68 158.266C358.583 158.314 358.534 158.362 358.438 158.412C357.804 158.899 357.123 159.336 356.587 159.921Z" fill="#571717"/>
<path fill-rule="evenodd" clip-rule="evenodd" d="M411.513 155.685C411.952 157.779 414.922 157.438 418.282 156.611C421.642 155.783 420.814 156.757 425.586 156.222C430.358 155.685 431.771 153.933 431.917 153.204C432.062 152.571 429.726 152.376 427.144 152.084C426.853 152.035 426.512 151.987 426.171 151.987C423.298 151.646 421.253 149.797 418.623 148.288C416.189 146.875 412.488 141.035 412.488 141.035L405.962 141.571C405.962 141.571 409.37 146.779 410.734 149.018C411.513 150.332 411.465 152.132 411.367 153.496C411.367 154.177 411.319 154.955 411.513 155.685Z" fill="#F9AF79"/>
<path fill-rule="evenodd" clip-rule="evenodd" d="M418.234 156.611C421.594 155.783 420.766 156.757 425.537 156.222C430.309 155.686 431.721 153.933 431.867 153.204C432.013 152.571 429.676 152.376 427.095 152.084V152.132C427.095 152.132 424.222 154.177 420.279 154.274C417.065 154.372 413.607 153.398 411.367 153.447C411.319 154.177 411.27 154.955 411.415 155.686C411.903 157.779 414.873 157.438 418.234 156.611Z" fill="#571717"/>
<path fill-rule="evenodd" clip-rule="evenodd" d="M396.954 59.8002C396.954 59.8002 398.512 56.0037 400.216 55.809C401.92 55.663 407.375 54.7868 407.764 55.5656C408.153 56.3444 407.764 59.1674 406.595 60.1409C405.427 61.163 398.221 62.7692 398.221 62.7692L396.954 59.8002Z" fill="#F9AF79"/>
<path fill-rule="evenodd" clip-rule="evenodd" d="M386.436 113.925L372.364 151.793C372.364 151.793 370.221 151.987 368.127 151.402C366.229 150.867 364.037 149.407 364.037 149.407C364.037 149.407 367.542 113.048 373.922 105.504C380.349 97.9112 386.436 113.925 386.436 113.925Z" fill="#4D383A"/>
<path fill-rule="evenodd" clip-rule="evenodd" d="M330.779 98.5925C330.779 98.5925 371.243 84.9154 380.251 87.8358C389.261 90.7561 416.383 144.588 416.383 144.588C416.383 144.588 415.798 145.416 414.094 146.049C412.536 146.633 408.787 146.584 408.787 146.584C408.787 146.584 384.343 125.655 381.42 119.522C378.499 113.389 377.33 107.597 374.409 108.181C371.487 108.765 336.865 122.442 329.026 114.314C321.185 106.185 323.232 95.5747 323.232 95.5747L330.779 98.5925Z" fill="#4C383A"/>
<path fill-rule="evenodd" clip-rule="evenodd" d="M355.515 35.0258C356.148 33.7116 356.878 31.3266 357.219 27.0921C357.171 27.5301 356.441 32.8354 354.396 35.8532C345.971 41.3532 329.854 59.8002 330.195 63.3047C330.195 63.3047 324.497 53.6675 324.399 53.6188C324.399 53.6188 313.931 40.331 326.348 32.6895C332.629 28.7957 332.629 23.831 332.337 19.4991C332.094 15.1672 334.041 -3.42583 346.701 1.44145C346.701 1.44145 348.698 0.565339 349.623 0.662684C349.623 0.662684 348.893 0.808703 348.504 1.19809C349.964 1.10074 352.058 1.19809 353.811 2.22021C358.486 4.84855 362.624 28.4548 355.515 35.0258Z" fill="#3A2B2C"/>
<path fill-rule="evenodd" clip-rule="evenodd" d="M353.909 36.0965C353.957 36.0965 349.867 38.2382 346.75 37.4107C343.828 36.632 341.93 32.8354 341.978 32.8354C343.195 32.5921 343.586 30.8885 343.536 23.6363L344.073 23.7337L353.422 25.5832C353.422 25.5832 353.177 28.5035 353.177 31.2779C353.227 33.6629 353.373 35.8532 353.909 36.0965Z" fill="#F9AF79"/>
<path fill-rule="evenodd" clip-rule="evenodd" d="M353.422 25.6319C353.422 25.6319 353.177 28.5522 353.177 31.3266C347.968 31.1806 345.192 26.4107 344.023 23.7823L353.422 25.6319Z" fill="#ED7D57"/>
<path fill-rule="evenodd" clip-rule="evenodd" d="M343.098 22.7602C343.098 22.7602 340.372 18.4283 339.69 14.7291C339.203 12.1008 340.566 2.26888 350.402 3.6804C350.402 3.6804 353.275 3.97243 355.954 5.77334C358.095 7.23352 361.164 10.3486 357.755 18.9151L356.878 21.7867L343.098 22.7602Z" fill="#4D383A"/>
<path fill-rule="evenodd" clip-rule="evenodd" d="M355.174 28.2602C355.174 28.2602 342.806 28.455 342.806 20.7646C342.806 13.0742 341.2 7.91495 349.087 7.42822C356.976 6.99016 358.534 9.91053 359.168 12.4902C359.751 15.0698 358.388 28.0169 355.174 28.2602Z" fill="#F9AF79"/>
<path fill-rule="evenodd" clip-rule="evenodd" d="M354.737 7.23354C354.737 7.23354 351.328 16.2868 346.166 17.6008C340.956 18.915 338.716 17.5521 338.716 17.5521C338.716 17.5521 342.709 14.3884 343.536 8.83974C343.488 8.83974 352.155 2.95032 354.737 7.23354Z" fill="#4D383A"/>
<path fill-rule="evenodd" clip-rule="evenodd" d="M353.909 7.9636C353.909 7.9636 356.441 9.95919 357.073 11.9548C357.706 13.9017 357.95 17.9415 359.168 17.8442C359.168 17.8442 361.7 11.7114 358.875 8.20696C355.71 4.50782 353.909 7.9636 353.909 7.9636Z" fill="#4D383A"/>
<path fill-rule="evenodd" clip-rule="evenodd" d="M321.283 98.8359C321.917 100.685 324.01 101.172 326.737 100.831C331.947 100.199 339.738 96.6943 345.338 94.2607C353.859 90.5615 357.755 94.0172 360.483 91.6809C363.209 89.3447 357.365 84.0881 362.43 59.8002C364.134 51.5745 353.275 33.9063 353.275 33.9063C353.275 33.9063 352.351 39.0169 341.978 32.8841C341.637 32.6408 337.499 38.7249 333.603 46.1719C329.269 54.3976 325.131 64.3269 326.348 69.4375C328.636 79.172 319.335 93.4332 321.283 98.8359Z" fill="#ED5158"/>
<path fill-rule="evenodd" clip-rule="evenodd" d="M353.275 33.9063L359.655 60.1409C359.655 60.1409 360.433 61.5524 361.7 63.548C364.621 68.2692 370.026 76.3003 373.532 77.1278C375.237 77.5172 378.888 76.1057 382.93 74.0614C390.526 70.2162 399.534 64.1808 399.534 64.1808C400.119 60.6764 397.1 57.8533 397.1 57.8533C397.1 57.8533 378.84 64.7161 377.038 64.8135C373.094 65.1055 369.102 46.0745 365.401 39.6983C362.722 35.123 353.275 33.9063 353.275 33.9063Z" fill="#ED5158"/>
<path fill-rule="evenodd" clip-rule="evenodd" d="M321.283 98.8359C321.917 100.686 324.01 101.172 326.737 100.831C330.341 99.2739 345.971 93.1899 345.825 89.1013C345.582 83.0172 342.806 82.8225 344.754 75.3269C346.312 69.2914 331.849 58.0968 329.561 55.6631C325.227 63.8888 325.131 64.2782 326.348 69.3888C328.636 79.172 319.335 93.4332 321.283 98.8359Z" fill="#DE3B43"/>
<path fill-rule="evenodd" clip-rule="evenodd" d="M361.748 63.5481C364.669 68.2694 370.075 76.3003 373.581 77.1278C375.285 77.5171 378.938 76.1057 382.978 74.0614C380.057 74.8402 377.184 74.7915 374.409 74.5482C371.39 74.2562 370.513 70.557 365.79 65.0569C362.624 61.4551 361.846 62.38 361.748 63.5481Z" fill="#DE3B43"/>
<path fill-rule="evenodd" clip-rule="evenodd" d="M347.237 75.1809C347.237 75.1809 349.867 73.1366 352.351 73.6233C354.833 74.1101 356.05 75.8137 355.905 76.5924C355.808 77.3712 354.492 79.5614 352.594 79.7562C350.695 79.9508 345.338 78.588 345.338 78.588L347.237 75.1809Z" fill="#F9AF79"/>
<path fill-rule="evenodd" clip-rule="evenodd" d="M341.978 32.8841C341.978 32.8841 331.899 33.5169 328.393 38.3841C323.475 45.247 314.954 73.2339 317.29 79.6101L347.968 79.464C347.968 79.464 348.698 76.0083 347.676 74.3047C346.653 72.6012 329.804 69.9241 329.026 69.1454C328.246 68.3666 338.716 54.0082 338.716 51.6719C338.764 49.3356 341.978 32.8841 341.978 32.8841Z" fill="#ED5158"/>
<path fill-rule="evenodd" clip-rule="evenodd" d="M349.867 86.619H387.02L393.692 63.3047H356.635L349.867 86.619Z" fill="#FADFDF"/>
<path d="M386.923 85.7428H338.327V86.6677H386.923V85.7428Z" fill="#FFFEFE"/>
<path fill-rule="evenodd" clip-rule="evenodd" d="M348.698 12.2468C349.819 12.3441 349.721 13.2203 348.941 13.4149C340.177 15.6053 345.923 12.0521 348.698 12.2468Z" fill="#4D383A"/>
</svg>
